<svg width="19" height="19" viewBox="0 0 19 19" fill="none" xmlns="http://www.w3.org/2000/svg">
<circle cx="9.5" cy="9.5" r="9" stroke="#DDD3D3"/>
<path d="M8.424 16V7.6H10.072V16H8.424ZM9.224 5.744C8.872 5.744 8.6 5.65333 8.408 5.472C8.216 5.29067 8.12 5.03467 8.12 4.704C8.12 4.39467 8.216 4.144 8.408 3.952C8.61067 3.76 8.88267 3.664 9.224 3.664C9.576 3.664 9.848 3.75467 10.04 3.936C10.232 4.11733 10.328 4.37333 10.328 4.704C10.328 5.01333 10.2267 5.264 10.024 5.456C9.832 5.648 9.56533 5.744 9.224 5.744Z" fill="#DDD3D3"/>
</svg>
